<?xml version="1.0" encoding="UTF-8" standalone="no"?>
<svg width="100" height="132" version="1.1" xmlns="http://www.w3.org/2000/svg">
<defs>
<defs  xmlns:ns1="http://www.w3.org/1999/xlink" id="defs2">
    <linearGradient id="whiteHighlight">
      <stop style="stop-color:#ffffff;stop-opacity:1" offset="0" id="stop1703" />
      <stop style="stop-color:#ffffff;stop-opacity:0" offset="1" id="stop1705" />
    </linearGradient>
    <linearGradient id="crownouter">
      <stop style="stop-color:#6e5b00;stop-opacity:1;" offset="0" id="stop4551" />
      <stop style="stop-color:#ffe845;stop-opacity:1" offset="0.5" id="stop5011" />
      <stop style="stop-color:#6e5b00;stop-opacity:1" offset="1" id="stop4553" />
    </linearGradient>
    <linearGradient id="crownInner">
      <stop id="stop2680" offset="0" style="stop-color:#312d17;stop-opacity:1" />
      <stop id="stop2686" offset="0.49426076" style="stop-color:#897c38;stop-opacity:1" />
      <stop id="stop2682" offset="1" style="stop-color:#312d17;stop-opacity:1" />
    </linearGradient>
    <linearGradient ns1:href="#crownInner" id="linearGradient4518" x1="4.9825168" y1="15.156635" x2="19.192074" y2="15.156635" gradientUnits="userSpaceOnUse" />
    <linearGradient ns1:href="#crownouter" id="linearGradient4670" gradientUnits="userSpaceOnUse" x1="4.0073304" y1="10.701041" x2="20.031181" y2="10.701041" />
    <linearGradient ns1:href="#crownouter" id="linearGradient5714" x1="4.9825497" y1="13.701599" x2="19.170591" y2="13.701599" gradientUnits="userSpaceOnUse" />
    <linearGradient ns1:href="#crownouter" id="linearGradient7029" x1="5.1953835" y1="15.294698" x2="18.838846" y2="15.294698" gradientUnits="userSpaceOnUse" />
    <linearGradient ns1:href="#crownouter" id="linearGradient7132" x1="12.0861" y1="7.6777701" x2="12.0861" y2="13.563574" gradientUnits="userSpaceOnUse" />
    <linearGradient ns1:href="#crownouter" id="linearGradient7235" x1="6.0899706" y1="14.878779" x2="6.0899706" y2="6.0688558" gradientUnits="userSpaceOnUse" />
    <linearGradient ns1:href="#crownInner" id="linearGradient7574" x1="5.195343" y1="16.95495" x2="18.859346" y2="16.95495" gradientUnits="userSpaceOnUse" />
    <linearGradient ns1:href="#crownouter" id="linearGradient8247" x1="4.6741257" y1="13.553888" x2="19.623487" y2="13.553888" gradientUnits="userSpaceOnUse" />
    <linearGradient ns1:href="#crownInner" id="linearGradient8297" x1="4.2282629" y1="14.824128" x2="20.030329" y2="14.824128" gradientUnits="userSpaceOnUse" />
    <radialGradient ns1:href="#whiteHighlight" id="radialGradient1709" cx="6.3546228" cy="6.4454737" fx="6.3546228" fy="6.4454737" r="3.1466389" gradientUnits="userSpaceOnUse" gradientTransform="matrix(1.947694,0,0,1.947694,-5.9662248,-5.1374146)" />
    <radialGradient ns1:href="#whiteHighlight" id="radialGradient1709-3" cx="6.3546228" cy="6.4454737" fx="6.3546228" fy="6.4454737" r="3.1466389" gradientUnits="userSpaceOnUse" gradientTransform="matrix(1.947694,0,0,1.947694,-2.7760498,-3.931728)" />
    <radialGradient ns1:href="#whiteHighlight" id="radialGradient1709-1" cx="6.3546228" cy="6.4454737" fx="6.3546228" fy="6.4454737" r="3.1466389" gradientUnits="userSpaceOnUse" gradientTransform="matrix(1.947694,0,0,1.947694,-3.0960853,-4.259142)" />
    <radialGradient ns1:href="#whiteHighlight" id="radialGradient1709-9" cx="6.3546228" cy="6.4454737" fx="6.3546228" fy="6.4454737" r="3.1466389" gradientUnits="userSpaceOnUse" gradientTransform="matrix(1.947694,0,0,1.947694,-2.4325948,-4.6088938)" />
    <linearGradient ns1:href="#crownouter" id="linearGradient3944" x1="11.165458" y1="7.2212901" x2="12.812607" y2="7.2212901" gradientUnits="userSpaceOnUse" />
  </defs>
  
</defs>
<g transform="rotate(180 50.0 66.0)">
<g transform="translate(2,2)">
<rect x="0" y="0" width="96" height="128" rx="5" ry="5" style="stroke:#000000;stroke-width:1;fill:#ffffff" />
<rect x="4" y="4" width="88" height="120" rx="5" ry="5" style="stroke:none;stroke-width:1;fill:#000080" />
<ellipse cx="8.000" cy="8.000" rx="4" ry="4" style="stroke:white;stroke-width:0.5px;fill:none" />
<ellipse cx="16.889" cy="8.000" rx="4" ry="4" style="stroke:white;stroke-width:0.5px;fill:none" />
<ellipse cx="25.778" cy="8.000" rx="4" ry="4" style="stroke:white;stroke-width:0.5px;fill:none" />
<ellipse cx="34.667" cy="8.000" rx="4" ry="4" style="stroke:white;stroke-width:0.5px;fill:none" />
<ellipse cx="43.556" cy="8.000" rx="4" ry="4" style="stroke:white;stroke-width:0.5px;fill:none" />
<ellipse cx="52.444" cy="8.000" rx="4" ry="4" style="stroke:white;stroke-width:0.5px;fill:none" />
<ellipse cx="61.333" cy="8.000" rx="4" ry="4" style="stroke:white;stroke-width:0.5px;fill:none" />
<ellipse cx="70.222" cy="8.000" rx="4" ry="4" style="stroke:white;stroke-width:0.5px;fill:none" />
<ellipse cx="79.111" cy="8.000" rx="4" ry="4" style="stroke:white;stroke-width:0.5px;fill:none" />
<ellipse cx="88.000" cy="8.000" rx="4" ry="4" style="stroke:white;stroke-width:0.5px;fill:none" />
<ellipse cx="8.000" cy="17.333" rx="4" ry="4" style="stroke:white;stroke-width:0.5px;fill:none" />
<ellipse cx="16.889" cy="17.333" rx="4" ry="4" style="stroke:white;stroke-width:0.5px;fill:none" />
<ellipse cx="25.778" cy="17.333" rx="4" ry="4" style="stroke:white;stroke-width:0.5px;fill:none" />
<ellipse cx="34.667" cy="17.333" rx="4" ry="4" style="stroke:white;stroke-width:0.5px;fill:none" />
<ellipse cx="43.556" cy="17.333" rx="4" ry="4" style="stroke:white;stroke-width:0.5px;fill:none" />
<ellipse cx="52.444" cy="17.333" rx="4" ry="4" style="stroke:white;stroke-width:0.5px;fill:none" />
<ellipse cx="61.333" cy="17.333" rx="4" ry="4" style="stroke:white;stroke-width:0.5px;fill:none" />
<ellipse cx="70.222" cy="17.333" rx="4" ry="4" style="stroke:white;stroke-width:0.5px;fill:none" />
<ellipse cx="79.111" cy="17.333" rx="4" ry="4" style="stroke:white;stroke-width:0.5px;fill:none" />
<ellipse cx="88.000" cy="17.333" rx="4" ry="4" style="stroke:white;stroke-width:0.5px;fill:none" />
<ellipse cx="8.000" cy="26.667" rx="4" ry="4" style="stroke:white;stroke-width:0.5px;fill:none" />
<ellipse cx="16.889" cy="26.667" rx="4" ry="4" style="stroke:white;stroke-width:0.5px;fill:none" />
<ellipse cx="25.778" cy="26.667" rx="4" ry="4" style="stroke:white;stroke-width:0.5px;fill:none" />
<ellipse cx="34.667" cy="26.667" rx="4" ry="4" style="stroke:white;stroke-width:0.5px;fill:none" />
<ellipse cx="43.556" cy="26.667" rx="4" ry="4" style="stroke:white;stroke-width:0.5px;fill:none" />
<ellipse cx="52.444" cy="26.667" rx="4" ry="4" style="stroke:white;stroke-width:0.5px;fill:none" />
<ellipse cx="61.333" cy="26.667" rx="4" ry="4" style="stroke:white;stroke-width:0.5px;fill:none" />
<ellipse cx="70.222" cy="26.667" rx="4" ry="4" style="stroke:white;stroke-width:0.5px;fill:none" />
<ellipse cx="79.111" cy="26.667" rx="4" ry="4" style="stroke:white;stroke-width:0.5px;fill:none" />
<ellipse cx="88.000" cy="26.667" rx="4" ry="4" style="stroke:white;stroke-width:0.5px;fill:none" />
<ellipse cx="8.000" cy="36.000" rx="4" ry="4" style="stroke:white;stroke-width:0.5px;fill:none" />
<ellipse cx="16.889" cy="36.000" rx="4" ry="4" style="stroke:white;stroke-width:0.5px;fill:none" />
<ellipse cx="25.778" cy="36.000" rx="4" ry="4" style="stroke:white;stroke-width:0.5px;fill:none" />
<ellipse cx="34.667" cy="36.000" rx="4" ry="4" style="stroke:white;stroke-width:0.5px;fill:none" />
<ellipse cx="43.556" cy="36.000" rx="4" ry="4" style="stroke:white;stroke-width:0.5px;fill:none" />
<ellipse cx="52.444" cy="36.000" rx="4" ry="4" style="stroke:white;stroke-width:0.5px;fill:none" />
<ellipse cx="61.333" cy="36.000" rx="4" ry="4" style="stroke:white;stroke-width:0.5px;fill:none" />
<ellipse cx="70.222" cy="36.000" rx="4" ry="4" style="stroke:white;stroke-width:0.5px;fill:none" />
<ellipse cx="79.111" cy="36.000" rx="4" ry="4" style="stroke:white;stroke-width:0.5px;fill:none" />
<ellipse cx="88.000" cy="36.000" rx="4" ry="4" style="stroke:white;stroke-width:0.5px;fill:none" />
<ellipse cx="8.000" cy="45.333" rx="4" ry="4" style="stroke:white;stroke-width:0.5px;fill:none" />
<ellipse cx="16.889" cy="45.333" rx="4" ry="4" style="stroke:white;stroke-width:0.5px;fill:none" />
<ellipse cx="25.778" cy="45.333" rx="4" ry="4" style="stroke:white;stroke-width:0.5px;fill:none" />
<ellipse cx="34.667" cy="45.333" rx="4" ry="4" style="stroke:white;stroke-width:0.5px;fill:none" />
<ellipse cx="43.556" cy="45.333" rx="4" ry="4" style="stroke:white;stroke-width:0.5px;fill:none" />
<ellipse cx="52.444" cy="45.333" rx="4" ry="4" style="stroke:white;stroke-width:0.5px;fill:none" />
<ellipse cx="61.333" cy="45.333" rx="4" ry="4" style="stroke:white;stroke-width:0.5px;fill:none" />
<ellipse cx="70.222" cy="45.333" rx="4" ry="4" style="stroke:white;stroke-width:0.5px;fill:none" />
<ellipse cx="79.111" cy="45.333" rx="4" ry="4" style="stroke:white;stroke-width:0.5px;fill:none" />
<ellipse cx="88.000" cy="45.333" rx="4" ry="4" style="stroke:white;stroke-width:0.5px;fill:none" />
<ellipse cx="8.000" cy="54.667" rx="4" ry="4" style="stroke:white;stroke-width:0.5px;fill:none" />
<ellipse cx="16.889" cy="54.667" rx="4" ry="4" style="stroke:white;stroke-width:0.5px;fill:none" />
<ellipse cx="25.778" cy="54.667" rx="4" ry="4" style="stroke:white;stroke-width:0.5px;fill:none" />
<ellipse cx="34.667" cy="54.667" rx="4" ry="4" style="stroke:white;stroke-width:0.5px;fill:none" />
<ellipse cx="43.556" cy="54.667" rx="4" ry="4" style="stroke:white;stroke-width:0.5px;fill:none" />
<ellipse cx="52.444" cy="54.667" rx="4" ry="4" style="stroke:white;stroke-width:0.5px;fill:none" />
<ellipse cx="61.333" cy="54.667" rx="4" ry="4" style="stroke:white;stroke-width:0.5px;fill:none" />
<ellipse cx="70.222" cy="54.667" rx="4" ry="4" style="stroke:white;stroke-width:0.5px;fill:none" />
<ellipse cx="79.111" cy="54.667" rx="4" ry="4" style="stroke:white;stroke-width:0.5px;fill:none" />
<ellipse cx="88.000" cy="54.667" rx="4" ry="4" style="stroke:white;stroke-width:0.5px;fill:none" />
<ellipse cx="8.000" cy="64.000" rx="4" ry="4" style="stroke:white;stroke-width:0.5px;fill:none" />
<ellipse cx="16.889" cy="64.000" rx="4" ry="4" style="stroke:white;stroke-width:0.5px;fill:none" />
<ellipse cx="25.778" cy="64.000" rx="4" ry="4" style="stroke:white;stroke-width:0.5px;fill:none" />
<ellipse cx="34.667" cy="64.000" rx="4" ry="4" style="stroke:white;stroke-width:0.5px;fill:none" />
<ellipse cx="43.556" cy="64.000" rx="4" ry="4" style="stroke:white;stroke-width:0.5px;fill:none" />
<ellipse cx="52.444" cy="64.000" rx="4" ry="4" style="stroke:white;stroke-width:0.5px;fill:none" />
<ellipse cx="61.333" cy="64.000" rx="4" ry="4" style="stroke:white;stroke-width:0.5px;fill:none" />
<ellipse cx="70.222" cy="64.000" rx="4" ry="4" style="stroke:white;stroke-width:0.5px;fill:none" />
<ellipse cx="79.111" cy="64.000" rx="4" ry="4" style="stroke:white;stroke-width:0.5px;fill:none" />
<ellipse cx="88.000" cy="64.000" rx="4" ry="4" style="stroke:white;stroke-width:0.5px;fill:none" />
<ellipse cx="8.000" cy="73.333" rx="4" ry="4" style="stroke:white;stroke-width:0.5px;fill:none" />
<ellipse cx="16.889" cy="73.333" rx="4" ry="4" style="stroke:white;stroke-width:0.5px;fill:none" />
<ellipse cx="25.778" cy="73.333" rx="4" ry="4" style="stroke:white;stroke-width:0.5px;fill:none" />
<ellipse cx="34.667" cy="73.333" rx="4" ry="4" style="stroke:white;stroke-width:0.5px;fill:none" />
<ellipse cx="43.556" cy="73.333" rx="4" ry="4" style="stroke:white;stroke-width:0.5px;fill:none" />
<ellipse cx="52.444" cy="73.333" rx="4" ry="4" style="stroke:white;stroke-width:0.5px;fill:none" />
<ellipse cx="61.333" cy="73.333" rx="4" ry="4" style="stroke:white;stroke-width:0.5px;fill:none" />
<ellipse cx="70.222" cy="73.333" rx="4" ry="4" style="stroke:white;stroke-width:0.5px;fill:none" />
<ellipse cx="79.111" cy="73.333" rx="4" ry="4" style="stroke:white;stroke-width:0.5px;fill:none" />
<ellipse cx="88.000" cy="73.333" rx="4" ry="4" style="stroke:white;stroke-width:0.5px;fill:none" />
<ellipse cx="8.000" cy="82.667" rx="4" ry="4" style="stroke:white;stroke-width:0.5px;fill:none" />
<ellipse cx="16.889" cy="82.667" rx="4" ry="4" style="stroke:white;stroke-width:0.5px;fill:none" />
<ellipse cx="25.778" cy="82.667" rx="4" ry="4" style="stroke:white;stroke-width:0.5px;fill:none" />
<ellipse cx="34.667" cy="82.667" rx="4" ry="4" style="stroke:white;stroke-width:0.5px;fill:none" />
<ellipse cx="43.556" cy="82.667" rx="4" ry="4" style="stroke:white;stroke-width:0.5px;fill:none" />
<ellipse cx="52.444" cy="82.667" rx="4" ry="4" style="stroke:white;stroke-width:0.5px;fill:none" />
<ellipse cx="61.333" cy="82.667" rx="4" ry="4" style="stroke:white;stroke-width:0.5px;fill:none" />
<ellipse cx="70.222" cy="82.667" rx="4" ry="4" style="stroke:white;stroke-width:0.5px;fill:none" />
<ellipse cx="79.111" cy="82.667" rx="4" ry="4" style="stroke:white;stroke-width:0.5px;fill:none" />
<ellipse cx="88.000" cy="82.667" rx="4" ry="4" style="stroke:white;stroke-width:0.5px;fill:none" />
<ellipse cx="8.000" cy="92.000" rx="4" ry="4" style="stroke:white;stroke-width:0.5px;fill:none" />
<ellipse cx="16.889" cy="92.000" rx="4" ry="4" style="stroke:white;stroke-width:0.5px;fill:none" />
<ellipse cx="25.778" cy="92.000" rx="4" ry="4" style="stroke:white;stroke-width:0.5px;fill:none" />
<ellipse cx="34.667" cy="92.000" rx="4" ry="4" style="stroke:white;stroke-width:0.5px;fill:none" />
<ellipse cx="43.556" cy="92.000" rx="4" ry="4" style="stroke:white;stroke-width:0.5px;fill:none" />
<ellipse cx="52.444" cy="92.000" rx="4" ry="4" style="stroke:white;stroke-width:0.5px;fill:none" />
<ellipse cx="61.333" cy="92.000" rx="4" ry="4" style="stroke:white;stroke-width:0.5px;fill:none" />
<ellipse cx="70.222" cy="92.000" rx="4" ry="4" style="stroke:white;stroke-width:0.5px;fill:none" />
<ellipse cx="79.111" cy="92.000" rx="4" ry="4" style="stroke:white;stroke-width:0.5px;fill:none" />
<ellipse cx="88.000" cy="92.000" rx="4" ry="4" style="stroke:white;stroke-width:0.5px;fill:none" />
<ellipse cx="8.000" cy="101.333" rx="4" ry="4" style="stroke:white;stroke-width:0.5px;fill:none" />
<ellipse cx="16.889" cy="101.333" rx="4" ry="4" style="stroke:white;stroke-width:0.5px;fill:none" />
<ellipse cx="25.778" cy="101.333" rx="4" ry="4" style="stroke:white;stroke-width:0.5px;fill:none" />
<ellipse cx="34.667" cy="101.333" rx="4" ry="4" style="stroke:white;stroke-width:0.5px;fill:none" />
<ellipse cx="43.556" cy="101.333" rx="4" ry="4" style="stroke:white;stroke-width:0.5px;fill:none" />
<ellipse cx="52.444" cy="101.333" rx="4" ry="4" style="stroke:white;stroke-width:0.5px;fill:none" />
<ellipse cx="61.333" cy="101.333" rx="4" ry="4" style="stroke:white;stroke-width:0.5px;fill:none" />
<ellipse cx="70.222" cy="101.333" rx="4" ry="4" style="stroke:white;stroke-width:0.5px;fill:none" />
<ellipse cx="79.111" cy="101.333" rx="4" ry="4" style="stroke:white;stroke-width:0.5px;fill:none" />
<ellipse cx="88.000" cy="101.333" rx="4" ry="4" style="stroke:white;stroke-width:0.5px;fill:none" />
<ellipse cx="8.000" cy="110.667" rx="4" ry="4" style="stroke:white;stroke-width:0.5px;fill:none" />
<ellipse cx="16.889" cy="110.667" rx="4" ry="4" style="stroke:white;stroke-width:0.5px;fill:none" />
<ellipse cx="25.778" cy="110.667" rx="4" ry="4" style="stroke:white;stroke-width:0.5px;fill:none" />
<ellipse cx="34.667" cy="110.667" rx="4" ry="4" style="stroke:white;stroke-width:0.5px;fill:none" />
<ellipse cx="43.556" cy="110.667" rx="4" ry="4" style="stroke:white;stroke-width:0.5px;fill:none" />
<ellipse cx="52.444" cy="110.667" rx="4" ry="4" style="stroke:white;stroke-width:0.5px;fill:none" />
<ellipse cx="61.333" cy="110.667" rx="4" ry="4" style="stroke:white;stroke-width:0.5px;fill:none" />
<ellipse cx="70.222" cy="110.667" rx="4" ry="4" style="stroke:white;stroke-width:0.5px;fill:none" />
<ellipse cx="79.111" cy="110.667" rx="4" ry="4" style="stroke:white;stroke-width:0.5px;fill:none" />
<ellipse cx="88.000" cy="110.667" rx="4" ry="4" style="stroke:white;stroke-width:0.5px;fill:none" />
<ellipse cx="8.000" cy="120.000" rx="4" ry="4" style="stroke:white;stroke-width:0.5px;fill:none" />
<ellipse cx="16.889" cy="120.000" rx="4" ry="4" style="stroke:white;stroke-width:0.5px;fill:none" />
<ellipse cx="25.778" cy="120.000" rx="4" ry="4" style="stroke:white;stroke-width:0.5px;fill:none" />
<ellipse cx="34.667" cy="120.000" rx="4" ry="4" style="stroke:white;stroke-width:0.5px;fill:none" />
<ellipse cx="43.556" cy="120.000" rx="4" ry="4" style="stroke:white;stroke-width:0.5px;fill:none" />
<ellipse cx="52.444" cy="120.000" rx="4" ry="4" style="stroke:white;stroke-width:0.5px;fill:none" />
<ellipse cx="61.333" cy="120.000" rx="4" ry="4" style="stroke:white;stroke-width:0.5px;fill:none" />
<ellipse cx="70.222" cy="120.000" rx="4" ry="4" style="stroke:white;stroke-width:0.5px;fill:none" />
<ellipse cx="79.111" cy="120.000" rx="4" ry="4" style="stroke:white;stroke-width:0.5px;fill:none" />
<ellipse cx="88.000" cy="120.000" rx="4" ry="4" style="stroke:white;stroke-width:0.5px;fill:none" />
<ellipse cx="48.0" cy="64.0" rx="20" ry="20" style="stroke:none;fill:#000080" />
<g transform="translate(36.0,52.0) translate(12.0,12.0) scale(1.5) translate(-12.0,-12.0)">
<g  id="back1" style="stroke-width:3.77951">
      <path style="fill:#ffffff;fill-opacity:1;stroke:none;stroke-width:1;stroke-linecap:round;stroke-miterlimit:4;stroke-dasharray:none;stroke-opacity:1" d="M 11.995,0.157711 L 14.3673,4.90225 L 11.995,12.0191 L 9.62277,4.90225 Z" id="path2721" />
      <path style="fill:#ffffff;fill-opacity:1;stroke:none;stroke-width:1;stroke-linecap:round;stroke-miterlimit:4;stroke-dasharray:none;stroke-opacity:1" d="M 12.0002,12.0212 L 15.3551,6.15012 L 18.2906,5.73075 L 17.8712,8.66629 Z" id="path2723" />
      <path style="fill:#ffffff;fill-opacity:1;stroke:none;stroke-width:1;stroke-linecap:round;stroke-miterlimit:4;stroke-dasharray:none;stroke-opacity:1" d="M 23.8843,12.047 L 19.1398,14.4193 L 12.023,12.047 L 19.1398,9.67471 Z" id="path2885" />
      <path style="fill:#ffffff;fill-opacity:1;stroke:none;stroke-width:1;stroke-linecap:round;stroke-miterlimit:4;stroke-dasharray:none;stroke-opacity:1" d="M 11.995,23.9363 L 9.62277,19.1917 L 11.995,12.0749 L 14.3673,19.1917 Z" id="path2887" />
      <path style="fill:#ffffff;fill-opacity:1;stroke:none;stroke-width:1;stroke-linecap:round;stroke-miterlimit:4;stroke-dasharray:none;stroke-opacity:1" d="M 0.105773,12.047 L 4.85031,9.67471 L 11.9671,12.047 L 4.85031,14.4193 Z" id="path2889" />
      <path style="fill:#ffffff;fill-opacity:1;stroke:none;stroke-width:1;stroke-linecap:round;stroke-miterlimit:4;stroke-dasharray:none;stroke-opacity:1" d="M 12.0002,12.0314 L 17.8712,15.3863 L 18.2906,18.3219 L 15.3551,17.9025 Z" id="path2891" />
      <path style="fill:#ffffff;fill-opacity:1;stroke:none;stroke-width:1;stroke-linecap:round;stroke-miterlimit:4;stroke-dasharray:none;stroke-opacity:1" d="M 11.9899,12.0314 L 8.63502,17.9025 L 5.69949,18.3219 L 6.11885,15.3863 Z" id="path2893" />
      <path style="fill:#ffffff;fill-opacity:1;stroke:none;stroke-width:1;stroke-linecap:round;stroke-miterlimit:4;stroke-dasharray:none;stroke-opacity:1" d="M 11.9899,12.0212 L 6.11885,8.66629 L 5.69949,5.73075 L 8.63502,6.15012 Z" id="path2895" />
      <path style="color:#000000;fill:#000000;stroke-width:3.77951;stroke-linecap:round;-inkscape-stroke:none" d="M 11.995,6.7804 C 9.10754,6.7804 6.75638,9.13156 6.75638,12.019 C 6.75638,14.9064 9.10754,17.258 11.995,17.258 C 14.8824,17.258 17.2339,14.9064 17.2339,12.019 C 17.2339,9.13156 14.8824,6.7804 11.995,6.7804 Z M 11.995,7.76872 C 14.3482,7.76872 16.2452,9.66576 16.2452,12.019 C 16.2452,14.3722 14.3482,16.2693 11.995,16.2693 C 9.64174,16.2693 7.7447,14.3722 7.7447,12.019 C 7.7447,9.66576 9.64174,7.76872 11.995,7.76872 Z" id="path2919" />
      <path style="fill:#4080ff;fill-opacity:1;stroke:none;stroke-width:1;stroke-linecap:round;stroke-miterlimit:4;stroke-dasharray:none;stroke-opacity:1" d="M 11.995,0.157711 L 14.3673,4.90225 L 11.995,12.0191 V 4.90225 Z" id="path3477" />
      <path style="fill:#4080ff;fill-opacity:1;stroke:none;stroke-width:1;stroke-linecap:round;stroke-miterlimit:4;stroke-dasharray:none;stroke-opacity:1" d="M 23.8843,12.047 L 19.1398,14.4193 L 12.023,12.047 L 19.1119,12.0191 Z" id="path4174" />
      <path style="fill:#4080ff;fill-opacity:1;stroke:none;stroke-width:1;stroke-linecap:round;stroke-miterlimit:4;stroke-dasharray:none;stroke-opacity:1" d="M 11.995,23.9363 L 9.62277,19.1917 L 11.995,12.0749 V 19.1359 Z" id="path4214" />
      <path style="fill:#4080ff;fill-opacity:1;stroke:none;stroke-width:1;stroke-linecap:round;stroke-miterlimit:4;stroke-dasharray:none;stroke-opacity:1" d="M 0.105773,12.047 L 4.85031,9.67471 L 11.9671,12.047 L 4.87823,12.0191 Z" id="path4254" />
      <path style="fill:#454545;fill-opacity:1;stroke:none;stroke-width:1;stroke-linecap:round;stroke-miterlimit:4;stroke-dasharray:none;stroke-opacity:1" d="M 12.0002,12.0212 L 18.2906,5.73075 L 17.8712,8.66629 Z" id="path4601" />
      <path style="fill:#454545;fill-opacity:1;stroke:none;stroke-width:1;stroke-linecap:round;stroke-miterlimit:4;stroke-dasharray:none;stroke-opacity:1" d="M 12.0002,12.0314 L 18.2906,18.3219 L 15.3551,17.9025 Z" id="path4641" />
      <path style="fill:#454545;fill-opacity:1;stroke:none;stroke-width:1;stroke-linecap:round;stroke-miterlimit:4;stroke-dasharray:none;stroke-opacity:1" d="M 11.9899,12.0314 L 5.69949,18.3219 L 6.11885,15.3863 Z" id="path4700" />
      <path style="fill:#454545;fill-opacity:1;stroke:none;stroke-width:1;stroke-linecap:round;stroke-miterlimit:4;stroke-dasharray:none;stroke-opacity:1" d="M 11.9899,12.0212 L 5.69949,5.73075 L 8.63502,6.15012 Z" id="path4721" />
    </g>
    
</g>
</g>
</g>
</svg>