<?xml version="1.0" encoding="UTF-8" standalone="no"?>
<svg width="100" height="132" version="1.1" xmlns="http://www.w3.org/2000/svg">
<defs>
<defs  xmlns:ns1="http://www.w3.org/1999/xlink" id="defs2">
    <linearGradient id="whiteHighlight">
      <stop style="stop-color:#ffffff;stop-opacity:1" offset="0" id="stop1703" />
      <stop style="stop-color:#ffffff;stop-opacity:0" offset="1" id="stop1705" />
    </linearGradient>
    <linearGradient id="crownouter">
      <stop style="stop-color:#6e5b00;stop-opacity:1;" offset="0" id="stop4551" />
      <stop style="stop-color:#ffe845;stop-opacity:1" offset="0.5" id="stop5011" />
      <stop style="stop-color:#6e5b00;stop-opacity:1" offset="1" id="stop4553" />
    </linearGradient>
    <linearGradient id="crownInner">
      <stop id="stop2680" offset="0" style="stop-color:#312d17;stop-opacity:1" />
      <stop id="stop2686" offset="0.49426076" style="stop-color:#897c38;stop-opacity:1" />
      <stop id="stop2682" offset="1" style="stop-color:#312d17;stop-opacity:1" />
    </linearGradient>
    <linearGradient ns1:href="#crownInner" id="linearGradient4518" x1="4.9825168" y1="15.156635" x2="19.192074" y2="15.156635" gradientUnits="userSpaceOnUse" />
    <linearGradient ns1:href="#crownouter" id="linearGradient4670" gradientUnits="userSpaceOnUse" x1="4.0073304" y1="10.701041" x2="20.031181" y2="10.701041" />
    <linearGradient ns1:href="#crownouter" id="linearGradient5714" x1="4.9825497" y1="13.701599" x2="19.170591" y2="13.701599" gradientUnits="userSpaceOnUse" />
    <linearGradient ns1:href="#crownouter" id="linearGradient7029" x1="5.1953835" y1="15.294698" x2="18.838846" y2="15.294698" gradientUnits="userSpaceOnUse" />
    <linearGradient ns1:href="#crownouter" id="linearGradient7132" x1="12.0861" y1="7.6777701" x2="12.0861" y2="13.563574" gradientUnits="userSpaceOnUse" />
    <linearGradient ns1:href="#crownouter" id="linearGradient7235" x1="6.0899706" y1="14.878779" x2="6.0899706" y2="6.0688558" gradientUnits="userSpaceOnUse" />
    <linearGradient ns1:href="#crownInner" id="linearGradient7574" x1="5.195343" y1="16.95495" x2="18.859346" y2="16.95495" gradientUnits="userSpaceOnUse" />
    <linearGradient ns1:href="#crownouter" id="linearGradient8247" x1="4.6741257" y1="13.553888" x2="19.623487" y2="13.553888" gradientUnits="userSpaceOnUse" />
    <linearGradient ns1:href="#crownInner" id="linearGradient8297" x1="4.2282629" y1="14.824128" x2="20.030329" y2="14.824128" gradientUnits="userSpaceOnUse" />
    <radialGradient ns1:href="#whiteHighlight" id="radialGradient1709" cx="6.3546228" cy="6.4454737" fx="6.3546228" fy="6.4454737" r="3.1466389" gradientUnits="userSpaceOnUse" gradientTransform="matrix(1.947694,0,0,1.947694,-5.9662248,-5.1374146)" />
    <radialGradient ns1:href="#whiteHighlight" id="radialGradient1709-3" cx="6.3546228" cy="6.4454737" fx="6.3546228" fy="6.4454737" r="3.1466389" gradientUnits="userSpaceOnUse" gradientTransform="matrix(1.947694,0,0,1.947694,-2.7760498,-3.931728)" />
    <radialGradient ns1:href="#whiteHighlight" id="radialGradient1709-1" cx="6.3546228" cy="6.4454737" fx="6.3546228" fy="6.4454737" r="3.1466389" gradientUnits="userSpaceOnUse" gradientTransform="matrix(1.947694,0,0,1.947694,-3.0960853,-4.259142)" />
    <radialGradient ns1:href="#whiteHighlight" id="radialGradient1709-9" cx="6.3546228" cy="6.4454737" fx="6.3546228" fy="6.4454737" r="3.1466389" gradientUnits="userSpaceOnUse" gradientTransform="matrix(1.947694,0,0,1.947694,-2.4325948,-4.6088938)" />
    <linearGradient ns1:href="#crownouter" id="linearGradient3944" x1="11.165458" y1="7.2212901" x2="12.812607" y2="7.2212901" gradientUnits="userSpaceOnUse" />
  </defs>
  
</defs>
<g transform="rotate(180 50.0 66.0)">
<g transform="translate(2,2)">
<rect x="0" y="0" width="96" height="128" rx="5" ry="5" style="stroke:#000000;stroke-width:1;fill:#ffffff" />
<g transform="translate(48.0,27.0) scale(1.5,1.5)translate(-12.0,-12.0) ">
<path  style="opacity:0.35;fill:#fc0000;fill-opacity:1;stroke:none;stroke-width:0.264584px;stroke-linecap:butt;stroke-linejoin:miter;stroke-opacity:1" d="M 5.5455457,1.3145394 C 5.1459674,1.3274598 4.7192806,1.3789163 4.2572145,1.4703736 C 2.9212766,1.8384751 2.0021704,2.5180009 1.3861684,3.3492108 C -0.45551315,5.8343332 0.40714342,9.6827518 0.89958185,10.667091 C 2.6458195,14.157606 6.7883549,16.872439 12.027037,23.853449 C 17.26573,16.872439 21.408266,14.157606 23.154503,10.667091 C 23.646939,9.6827518 24.507864,5.8343332 22.666183,3.3492108 C 22.050185,2.5180009 21.132808,1.8384751 19.796869,1.4703736 C 16.100324,0.73833954 14.609577,2.5751854 12.027037,6.1215505 C 9.7673203,3.0184621 8.3425994,1.2241901 5.5455457,1.3145394 Z" id="pheart" />
    
</g>
<g transform="translate(48.0,103.0) scale(1.5,-1.5)translate(-12.0,-12.0) ">
<path  style="opacity:0.35;fill:#fc0000;fill-opacity:1;stroke:none;stroke-width:0.264584px;stroke-linecap:butt;stroke-linejoin:miter;stroke-opacity:1" d="M 5.5455457,1.3145394 C 5.1459674,1.3274598 4.7192806,1.3789163 4.2572145,1.4703736 C 2.9212766,1.8384751 2.0021704,2.5180009 1.3861684,3.3492108 C -0.45551315,5.8343332 0.40714342,9.6827518 0.89958185,10.667091 C 2.6458195,14.157606 6.7883549,16.872439 12.027037,23.853449 C 17.26573,16.872439 21.408266,14.157606 23.154503,10.667091 C 23.646939,9.6827518 24.507864,5.8343332 22.666183,3.3492108 C 22.050185,2.5180009 21.132808,1.8384751 19.796869,1.4703736 C 16.100324,0.73833954 14.609577,2.5751854 12.027037,6.1215505 C 9.7673203,3.0184621 8.3425994,1.2241901 5.5455457,1.3145394 Z" id="pheart" />
    
</g>
<g transform="translate(48.0,64.0) scale(3.5,3.5) translate(-12.0,-12.0)">
<g  id="queen" style="stroke-width:0.178491">
      <path style="fill:url(#linearGradient5714);fill-opacity:1;stroke:#000000;stroke-width:0.356981;stroke-linecap:square;stroke-linejoin:round;stroke-miterlimit:4;stroke-dasharray:none;stroke-dashoffset:0;stroke-opacity:1" d="M 5.16104,13.1604 C 5.16104,13.1604 9.7714,12.1982 12.0766,12.1982 C 14.3818,12.1982 18.9921,13.1604 18.9921,13.1604 V 13.7016 V 15.205 C 18.9921,15.205 14.3818,14.6036 12.0766,14.6036 C 9.7714,14.6036 5.16104,15.205 5.16104,15.205 V 13.7016 Z" id="rect3087-2" />
      <ellipse style="fill:url(#linearGradient4518);fill-opacity:1;stroke:#000000;stroke-width:0.357;stroke-linecap:square;stroke-linejoin:round;stroke-miterlimit:4;stroke-dasharray:none;stroke-dashoffset:0;stroke-opacity:1" id="path3927-9" cx="12.087296" cy="15.156635" rx="6.9262786" ry="0.84296542" />
      <path style="fill:url(#linearGradient4670);fill-opacity:1;stroke:#000000;stroke-width:0.356981;stroke-linecap:butt;stroke-linejoin:miter;stroke-miterlimit:4;stroke-dasharray:none;stroke-opacity:1" d="M 10.5732,8.25936 C 10.5732,8.25936 9.76246,9.61271 9.06982,9.76274 C 8.2329,9.94402 6.66442,8.86071 6.66442,8.86071 C 6.66442,8.86071 6.16512,10.4987 5.46172,10.6648 C 4.67527,10.8504 3.35699,9.46206 3.35699,9.46206 L 5.16104,13.2205 C 5.16104,13.2205 9.76552,12.4992 12.0766,12.4989 C 14.3976,12.4985 19.0222,13.2205 19.0222,13.2205 L 20.8262,9.46206 C 20.8262,9.46206 19.508,10.8504 18.7215,10.6648 C 18.0181,10.4987 17.5188,8.86071 17.5188,8.86071 C 17.5188,8.86071 15.9503,9.94402 15.1134,9.76274 C 14.4208,9.61271 13.61,8.25936 13.61,8.25936 L 12.0766,9.56918 Z" id="path5155-1" />
    </g>
    
</g>
<g transform="translate(2,22) scale(0.5,0.5)">
<path  style="fill:#fc0000;fill-opacity:1;stroke:none;stroke-width:0.264584px;stroke-linecap:butt;stroke-linejoin:miter;stroke-opacity:1" d="M 5.5455457,1.3145394 C 5.1459674,1.3274598 4.7192806,1.3789163 4.2572145,1.4703736 C 2.9212766,1.8384751 2.0021704,2.5180009 1.3861684,3.3492108 C -0.45551315,5.8343332 0.40714342,9.6827518 0.89958185,10.667091 C 2.6458195,14.157606 6.7883549,16.872439 12.027037,23.853449 C 17.26573,16.872439 21.408266,14.157606 23.154503,10.667091 C 23.646939,9.6827518 24.507864,5.8343332 22.666183,3.3492108 C 22.050185,2.5180009 21.132808,1.8384751 19.796869,1.4703736 C 16.100324,0.73833954 14.609577,2.5751854 12.027037,6.1215505 C 9.7673203,3.0184621 8.3425994,1.2241901 5.5455457,1.3145394 Z" id="heart" />
      
</g>
<g transform="translate(95,108) scale(0.5,0.5) rotate(180)">
<path  style="fill:#fc0000;fill-opacity:1;stroke:none;stroke-width:0.264584px;stroke-linecap:butt;stroke-linejoin:miter;stroke-opacity:1" d="M 5.5455457,1.3145394 C 5.1459674,1.3274598 4.7192806,1.3789163 4.2572145,1.4703736 C 2.9212766,1.8384751 2.0021704,2.5180009 1.3861684,3.3492108 C -0.45551315,5.8343332 0.40714342,9.6827518 0.89958185,10.667091 C 2.6458195,14.157606 6.7883549,16.872439 12.027037,23.853449 C 17.26573,16.872439 21.408266,14.157606 23.154503,10.667091 C 23.646939,9.6827518 24.507864,5.8343332 22.666183,3.3492108 C 22.050185,2.5180009 21.132808,1.8384751 19.796869,1.4703736 C 16.100324,0.73833954 14.609577,2.5751854 12.027037,6.1215505 C 9.7673203,3.0184621 8.3425994,1.2241901 5.5455457,1.3145394 Z" id="heart" />
      
</g>
<g transform="translate(3,4) scale(0.1,0.1)">
<path  id="Q" unicode="Q" horiz-adv-x="580" d="M 48.564686,0.29822067 H 56.16951 C 75.864041,1.4681934 88.733738,12.777926 93.413625,27.402581 C 98.093511,41.83224 97.898521,59.771817 98.093511,74.786459 C 97.898521,93.311023 98.483506,112.42058 89.903708,129.77516 C 88.343743,131.92011 86.588788,133.67508 84.833826,135.43003 L 97.508526,150.83467 L 85.613809,160.58444 L 72.159127,144.20483 C 67.284243,146.15478 62.019367,147.12976 56.16951,147.32475 H 48.369691 C 34.720014,146.93476 24.775249,142.05988 15.220474,129.77516 C 6.6406772,112.42058 7.0306676,93.311023 6.8356724,74.786459 C 7.0306676,59.771817 6.8356724,41.83224 11.515562,27.402581 C 16.195451,12.777926 28.870152,1.4681934 48.564686,0.29822067 Z M 46.809728,13.557908 C 28.675156,14.142894 23.605276,33.642433 23.605276,58.601844 C 23.410281,60.551798 23.436997,62.773261 23.436997,65.046422 C 23.436997,65.702206 23.410281,66.401652 23.410281,66.986637 C 23.410281,73.616483 23.605276,80.636316 23.800272,86.48618 C 24.580253,100.13586 25.360235,114.37052 32.77006,126.65523 C 35.305,131.33512 40.959867,133.87006 46.809728,134.06506 H 57.924465 C 59.679426,134.06506 61.434382,133.67506 63.189343,133.28507 L 47.58971,113.98053 L 59.289432,104.23076 L 74.304076,122.75532 C 79.568954,111.44559 80.348937,98.575895 81.128913,86.48618 C 81.32391,80.636316 81.518907,73.616483 81.518907,66.986637 C 81.518907,66.401652 81.492191,65.702206 81.492191,65.046422 C 81.492191,62.773261 81.518907,60.551798 81.32391,58.601844 C 81.32391,33.642433 76.059038,14.142894 57.924465,13.557908 Z" style="fill:#b00000;display:inline;stroke-width:0.999998" />
  
</g>
<g transform="rotate(180) translate(-94,-126) scale(0.1,0.1)">
<path  id="Q" unicode="Q" horiz-adv-x="580" d="M 48.564686,0.29822067 H 56.16951 C 75.864041,1.4681934 88.733738,12.777926 93.413625,27.402581 C 98.093511,41.83224 97.898521,59.771817 98.093511,74.786459 C 97.898521,93.311023 98.483506,112.42058 89.903708,129.77516 C 88.343743,131.92011 86.588788,133.67508 84.833826,135.43003 L 97.508526,150.83467 L 85.613809,160.58444 L 72.159127,144.20483 C 67.284243,146.15478 62.019367,147.12976 56.16951,147.32475 H 48.369691 C 34.720014,146.93476 24.775249,142.05988 15.220474,129.77516 C 6.6406772,112.42058 7.0306676,93.311023 6.8356724,74.786459 C 7.0306676,59.771817 6.8356724,41.83224 11.515562,27.402581 C 16.195451,12.777926 28.870152,1.4681934 48.564686,0.29822067 Z M 46.809728,13.557908 C 28.675156,14.142894 23.605276,33.642433 23.605276,58.601844 C 23.410281,60.551798 23.436997,62.773261 23.436997,65.046422 C 23.436997,65.702206 23.410281,66.401652 23.410281,66.986637 C 23.410281,73.616483 23.605276,80.636316 23.800272,86.48618 C 24.580253,100.13586 25.360235,114.37052 32.77006,126.65523 C 35.305,131.33512 40.959867,133.87006 46.809728,134.06506 H 57.924465 C 59.679426,134.06506 61.434382,133.67506 63.189343,133.28507 L 47.58971,113.98053 L 59.289432,104.23076 L 74.304076,122.75532 C 79.568954,111.44559 80.348937,98.575895 81.128913,86.48618 C 81.32391,80.636316 81.518907,73.616483 81.518907,66.986637 C 81.518907,66.401652 81.492191,65.702206 81.492191,65.046422 C 81.492191,62.773261 81.518907,60.551798 81.32391,58.601844 C 81.32391,33.642433 76.059038,14.142894 57.924465,13.557908 Z" style="fill:#b00000;display:inline;stroke-width:0.999998" />
  
</g>
</g>
</g>
</svg>