<?xml version="1.0" encoding="UTF-8" standalone="no"?>
<svg width="132" height="100" version="1.1" xmlns="http://www.w3.org/2000/svg">
<defs>
<defs  xmlns:ns1="http://www.w3.org/1999/xlink" id="defs2">
    <linearGradient id="whiteHighlight">
      <stop style="stop-color:#ffffff;stop-opacity:1" offset="0" id="stop1703" />
      <stop style="stop-color:#ffffff;stop-opacity:0" offset="1" id="stop1705" />
    </linearGradient>
    <linearGradient id="crownouter">
      <stop style="stop-color:#6e5b00;stop-opacity:1;" offset="0" id="stop4551" />
      <stop style="stop-color:#ffe845;stop-opacity:1" offset="0.5" id="stop5011" />
      <stop style="stop-color:#6e5b00;stop-opacity:1" offset="1" id="stop4553" />
    </linearGradient>
    <linearGradient id="crownInner">
      <stop id="stop2680" offset="0" style="stop-color:#312d17;stop-opacity:1" />
      <stop id="stop2686" offset="0.49426076" style="stop-color:#897c38;stop-opacity:1" />
      <stop id="stop2682" offset="1" style="stop-color:#312d17;stop-opacity:1" />
    </linearGradient>
    <linearGradient ns1:href="#crownInner" id="linearGradient4518" x1="4.9825168" y1="15.156635" x2="19.192074" y2="15.156635" gradientUnits="userSpaceOnUse" />
    <linearGradient ns1:href="#crownouter" id="linearGradient4670" gradientUnits="userSpaceOnUse" x1="4.0073304" y1="10.701041" x2="20.031181" y2="10.701041" />
    <linearGradient ns1:href="#crownouter" id="linearGradient5714" x1="4.9825497" y1="13.701599" x2="19.170591" y2="13.701599" gradientUnits="userSpaceOnUse" />
    <linearGradient ns1:href="#crownouter" id="linearGradient7029" x1="5.1953835" y1="15.294698" x2="18.838846" y2="15.294698" gradientUnits="userSpaceOnUse" />
    <linearGradient ns1:href="#crownouter" id="linearGradient7132" x1="12.0861" y1="7.6777701" x2="12.0861" y2="13.563574" gradientUnits="userSpaceOnUse" />
    <linearGradient ns1:href="#crownouter" id="linearGradient7235" x1="6.0899706" y1="14.878779" x2="6.0899706" y2="6.0688558" gradientUnits="userSpaceOnUse" />
    <linearGradient ns1:href="#crownInner" id="linearGradient7574" x1="5.195343" y1="16.95495" x2="18.859346" y2="16.95495" gradientUnits="userSpaceOnUse" />
    <linearGradient ns1:href="#crownouter" id="linearGradient8247" x1="4.6741257" y1="13.553888" x2="19.623487" y2="13.553888" gradientUnits="userSpaceOnUse" />
    <linearGradient ns1:href="#crownInner" id="linearGradient8297" x1="4.2282629" y1="14.824128" x2="20.030329" y2="14.824128" gradientUnits="userSpaceOnUse" />
    <radialGradient ns1:href="#whiteHighlight" id="radialGradient1709" cx="6.3546228" cy="6.4454737" fx="6.3546228" fy="6.4454737" r="3.1466389" gradientUnits="userSpaceOnUse" gradientTransform="matrix(1.947694,0,0,1.947694,-5.9662248,-5.1374146)" />
    <radialGradient ns1:href="#whiteHighlight" id="radialGradient1709-3" cx="6.3546228" cy="6.4454737" fx="6.3546228" fy="6.4454737" r="3.1466389" gradientUnits="userSpaceOnUse" gradientTransform="matrix(1.947694,0,0,1.947694,-2.7760498,-3.931728)" />
    <radialGradient ns1:href="#whiteHighlight" id="radialGradient1709-1" cx="6.3546228" cy="6.4454737" fx="6.3546228" fy="6.4454737" r="3.1466389" gradientUnits="userSpaceOnUse" gradientTransform="matrix(1.947694,0,0,1.947694,-3.0960853,-4.259142)" />
    <radialGradient ns1:href="#whiteHighlight" id="radialGradient1709-9" cx="6.3546228" cy="6.4454737" fx="6.3546228" fy="6.4454737" r="3.1466389" gradientUnits="userSpaceOnUse" gradientTransform="matrix(1.947694,0,0,1.947694,-2.4325948,-4.6088938)" />
    <linearGradient ns1:href="#crownouter" id="linearGradient3944" x1="11.165458" y1="7.2212901" x2="12.812607" y2="7.2212901" gradientUnits="userSpaceOnUse" />
  </defs>
  
</defs>
<g transform="translate(66.0,50.0) rotate(90) translate(-50.0,-66.0)">
<g transform="translate(2,2)">
<rect x="0" y="0" width="96" height="128" rx="5" ry="5" style="stroke:#000000;stroke-width:1;fill:#ffffff" />
<g transform="translate(48.0,27.0) scale(1.5,1.5)translate(-12.0,-12.0) ">
<path  style="opacity:0.35;fill:#130000;fill-opacity:1;stroke:none;stroke-width:0.264584" d="M 12.050422,-0.11425474 C 10.51255,4.1940981 1.593189,8.5002163 1.6451638,13.42139 C 1.6642083,15.224509 3.01462,17.951662 5.8989373,18.032602 C 8.9746806,18.032602 10.820123,16.497038 10.820123,16.49473 C 10.820123,19.880358 9.9454764,22.176445 4.3610685,24.030306 L 12.050422,23.876519 L 19.73978,24.030306 C 14.155367,22.176427 13.280716,19.880358 13.280716,16.49473 C 13.280716,16.497038 15.126163,18.032602 18.201904,18.032602 C 21.086227,17.951662 22.436641,15.224509 22.455683,13.42139 C 22.50766,8.5002163 13.588291,4.1940981 12.050422,-0.11425474 Z" id="pspade" />
    
</g>
<g transform="translate(48.0,103.0) scale(1.5,-1.5)translate(-12.0,-12.0) ">
<path  style="opacity:0.35;fill:#130000;fill-opacity:1;stroke:none;stroke-width:0.264584" d="M 12.050422,-0.11425474 C 10.51255,4.1940981 1.593189,8.5002163 1.6451638,13.42139 C 1.6642083,15.224509 3.01462,17.951662 5.8989373,18.032602 C 8.9746806,18.032602 10.820123,16.497038 10.820123,16.49473 C 10.820123,19.880358 9.9454764,22.176445 4.3610685,24.030306 L 12.050422,23.876519 L 19.73978,24.030306 C 14.155367,22.176427 13.280716,19.880358 13.280716,16.49473 C 13.280716,16.497038 15.126163,18.032602 18.201904,18.032602 C 21.086227,17.951662 22.436641,15.224509 22.455683,13.42139 C 22.50766,8.5002163 13.588291,4.1940981 12.050422,-0.11425474 Z" id="pspade" />
    
</g>
<g transform="translate(48.0,64.0) scale(3.5,3.5) translate(-12.0,-12.0)">
<g  id="king" style="stroke-width:0.223847" transform="matrix(0.90180121,0,0,0.90180121,1.1799429,1.1842965)">
      <path id="path3099" style="fill:url(#linearGradient7235);fill-opacity:1;stroke:#000000;stroke-width:0.447693;stroke-linecap:butt;stroke-linejoin:miter;stroke-miterlimit:4;stroke-dasharray:none;stroke-opacity:1" d="M 12.0146,7.90196 C 12.0146,7.90196 14.8833,6.76463 16.6045,7.04896 C 18.3257,7.33329 20.3337,9.0393 20.3337,10.461 C 20.3337,11.8826 18.6126,14.1573 18.6126,14.1573 H 16.758 C 16.758,14.1573 18.6326,12.167 18.4792,10.461 C 18.3257,8.75496 16.3176,8.1863 15.1702,8.1863 C 14.0227,8.1863 12.0146,9.32363 12.0146,9.32363 M 12.0171,7.90196 C 12.0171,7.90196 9.14846,6.76463 7.42727,7.04896 C 5.70608,7.33329 3.69802,9.0393 3.69802,10.461 C 3.69802,11.8826 5.41921,14.1573 5.41921,14.1573 H 7.27379 C 7.27379,14.1573 5.39912,12.167 5.5526,10.461 C 5.70608,8.75496 7.71414,8.1863 8.8616,8.1863 C 10.0091,8.1863 12.0171,9.32363 12.0171,9.32363" />
      <path id="path3104" style="fill:url(#linearGradient3944);fill-opacity:1;stroke:#000000;stroke-width:0.447693;stroke-linecap:square;stroke-linejoin:round" d="M 12.8488,7.22129 C 12.8488,7.44752 12.7581,7.66448 12.5967,7.82445 C 12.4353,7.98442 12.2164,8.07429 11.9882,8.07429 C 11.7599,8.07429 11.541,7.98442 11.3796,7.82445 C 11.2182,7.66448 11.1276,7.44752 11.1276,7.22129 C 11.1276,6.99506 11.2182,6.77809 11.3796,6.61812 C 11.541,6.45816 11.7599,6.36829 11.9882,6.36829 C 12.2164,6.36829 12.4353,6.45816 12.5967,6.61812 C 12.7581,6.77809 12.8488,6.99506 12.8488,7.22129 Z" />
      <path style="fill:url(#linearGradient7029);fill-opacity:1;stroke:#000000;stroke-width:0.447693;stroke-linecap:square;stroke-linejoin:round;stroke-miterlimit:4;stroke-dasharray:none;stroke-dashoffset:0;stroke-opacity:1" d="M 5.41923,14.1573 C 5.41923,14.1573 9.81784,13.5887 12.0171,13.5887 C 14.2164,13.5887 18.615,14.1573 18.615,14.1573 V 15.579 V 17.0007 C 18.615,17.0007 14.2164,16.432 12.0171,16.432 C 9.81784,16.432 5.41923,17.0007 5.41923,17.0007 V 15.579 Z" id="rect3087-0" />
      <path id="rect3102" style="fill:url(#linearGradient7132);fill-opacity:1;stroke:#000000;stroke-width:0.447693;stroke-linecap:square;stroke-linejoin:round" d="M 11.2405,7.70091 H 12.7937 V 13.6087 H 11.2405 Z" />
      <path id="path3927-6" style="fill:url(#linearGradient7574);fill-opacity:1;stroke:#000000;stroke-width:0.447694;stroke-linecap:square;stroke-linejoin:round" d="M 18.6355,16.955 C 18.6355,17.1664 17.9393,17.3691 16.7,17.5186 C 15.4607,17.6681 13.7799,17.7521 12.0273,17.7521 C 10.2748,17.7521 8.59395,17.6681 7.35468,17.5186 C 6.11541,17.3691 5.41919,17.1664 5.41919,16.955 C 5.41919,16.7435 6.11541,16.5408 7.35468,16.3913 C 8.59395,16.2418 10.2748,16.1578 12.0273,16.1578 C 13.7799,16.1578 15.4607,16.2418 16.7,16.3913 C 17.9393,16.5408 18.6355,16.7435 18.6355,16.955 Z" />
    </g>
  
</g>
<g transform="translate(2,22) scale(0.5,0.5)">
<path  style="fill:#000000;fill-opacity:1;stroke:none;stroke-width:0.264584" d="M 12.050422,-0.11425474 C 10.51255,4.1940981 1.593189,8.5002163 1.6451638,13.42139 C 1.6642083,15.224509 3.01462,17.951662 5.8989373,18.032602 C 8.9746806,18.032602 10.820123,16.497038 10.820123,16.49473 C 10.820123,19.880358 9.9454764,22.176445 4.3610685,24.030306 L 12.050422,23.876519 L 19.73978,24.030306 C 14.155367,22.176427 13.280716,19.880358 13.280716,16.49473 C 13.280716,16.497038 15.126163,18.032602 18.201904,18.032602 C 21.086227,17.951662 22.436641,15.224509 22.455683,13.42139 C 22.50766,8.5002163 13.588291,4.1940981 12.050422,-0.11425474 Z" id="spade" />
      
</g>
<g transform="translate(95,108) scale(0.5,0.5) rotate(180)">
<path  style="fill:#000000;fill-opacity:1;stroke:none;stroke-width:0.264584" d="M 12.050422,-0.11425474 C 10.51255,4.1940981 1.593189,8.5002163 1.6451638,13.42139 C 1.6642083,15.224509 3.01462,17.951662 5.8989373,18.032602 C 8.9746806,18.032602 10.820123,16.497038 10.820123,16.49473 C 10.820123,19.880358 9.9454764,22.176445 4.3610685,24.030306 L 12.050422,23.876519 L 19.73978,24.030306 C 14.155367,22.176427 13.280716,19.880358 13.280716,16.49473 C 13.280716,16.497038 15.126163,18.032602 18.201904,18.032602 C 21.086227,17.951662 22.436641,15.224509 22.455683,13.42139 C 22.50766,8.5002163 13.588291,4.1940981 12.050422,-0.11425474 Z" id="spade" />
      
</g>
<g transform="translate(3,4) scale(0.1,0.1)">
<path  id="K" unicode="K" horiz-adv-x="571" d="M 10.150594,-2.4317145 H 26.725202 V 64.061712 C 27.310189,63.671724 32.185073,61.721772 37.254954,57.041881 C 48.759682,46.317134 62.994346,26.817594 70.794159,12.387935 C 74.694064,5.173106 76.644023,-1.651733 76.644023,-2.4317145 H 93.218627 C 93.218627,5.173106 90.098705,11.802949 85.613809,20.187751 C 76.644023,36.957355 62.214364,56.456894 48.954678,68.936602 C 62.409361,74.786459 73.329097,85.31621 81.713904,96.82094 C 94.193607,114.17553 101.60344,133.09008 101.60344,147.32475 H 85.028824 C 85.028824,139.91493 78.983963,121.58536 68.259222,106.7657 C 57.534477,91.946055 42.90982,80.83132 26.725202,80.83132 V 147.32475 H 10.150594 Z" style="fill:#000000;display:inline;stroke-width:0.999998" />
  
</g>
<g transform="rotate(180) translate(-94,-126) scale(0.1,0.1)">
<path  id="K" unicode="K" horiz-adv-x="571" d="M 10.150594,-2.4317145 H 26.725202 V 64.061712 C 27.310189,63.671724 32.185073,61.721772 37.254954,57.041881 C 48.759682,46.317134 62.994346,26.817594 70.794159,12.387935 C 74.694064,5.173106 76.644023,-1.651733 76.644023,-2.4317145 H 93.218627 C 93.218627,5.173106 90.098705,11.802949 85.613809,20.187751 C 76.644023,36.957355 62.214364,56.456894 48.954678,68.936602 C 62.409361,74.786459 73.329097,85.31621 81.713904,96.82094 C 94.193607,114.17553 101.60344,133.09008 101.60344,147.32475 H 85.028824 C 85.028824,139.91493 78.983963,121.58536 68.259222,106.7657 C 57.534477,91.946055 42.90982,80.83132 26.725202,80.83132 V 147.32475 H 10.150594 Z" style="fill:#000000;display:inline;stroke-width:0.999998" />
  
</g>
</g>
</g>
</svg>