<?xml version="1.0" encoding="UTF-8" standalone="no"?>
<svg width="132" height="100" version="1.1" xmlns="http://www.w3.org/2000/svg">
<defs>
<defs  xmlns:ns1="http://www.w3.org/1999/xlink" id="defs2">
    <linearGradient id="whiteHighlight">
      <stop style="stop-color:#ffffff;stop-opacity:1" offset="0" id="stop1703" />
      <stop style="stop-color:#ffffff;stop-opacity:0" offset="1" id="stop1705" />
    </linearGradient>
    <linearGradient id="crownouter">
      <stop style="stop-color:#6e5b00;stop-opacity:1;" offset="0" id="stop4551" />
      <stop style="stop-color:#ffe845;stop-opacity:1" offset="0.5" id="stop5011" />
      <stop style="stop-color:#6e5b00;stop-opacity:1" offset="1" id="stop4553" />
    </linearGradient>
    <linearGradient id="crownInner">
      <stop id="stop2680" offset="0" style="stop-color:#312d17;stop-opacity:1" />
      <stop id="stop2686" offset="0.49426076" style="stop-color:#897c38;stop-opacity:1" />
      <stop id="stop2682" offset="1" style="stop-color:#312d17;stop-opacity:1" />
    </linearGradient>
    <linearGradient ns1:href="#crownInner" id="linearGradient4518" x1="4.9825168" y1="15.156635" x2="19.192074" y2="15.156635" gradientUnits="userSpaceOnUse" />
    <linearGradient ns1:href="#crownouter" id="linearGradient4670" gradientUnits="userSpaceOnUse" x1="4.0073304" y1="10.701041" x2="20.031181" y2="10.701041" />
    <linearGradient ns1:href="#crownouter" id="linearGradient5714" x1="4.9825497" y1="13.701599" x2="19.170591" y2="13.701599" gradientUnits="userSpaceOnUse" />
    <linearGradient ns1:href="#crownouter" id="linearGradient7029" x1="5.1953835" y1="15.294698" x2="18.838846" y2="15.294698" gradientUnits="userSpaceOnUse" />
    <linearGradient ns1:href="#crownouter" id="linearGradient7132" x1="12.0861" y1="7.6777701" x2="12.0861" y2="13.563574" gradientUnits="userSpaceOnUse" />
    <linearGradient ns1:href="#crownouter" id="linearGradient7235" x1="6.0899706" y1="14.878779" x2="6.0899706" y2="6.0688558" gradientUnits="userSpaceOnUse" />
    <linearGradient ns1:href="#crownInner" id="linearGradient7574" x1="5.195343" y1="16.95495" x2="18.859346" y2="16.95495" gradientUnits="userSpaceOnUse" />
    <linearGradient ns1:href="#crownouter" id="linearGradient8247" x1="4.6741257" y1="13.553888" x2="19.623487" y2="13.553888" gradientUnits="userSpaceOnUse" />
    <linearGradient ns1:href="#crownInner" id="linearGradient8297" x1="4.2282629" y1="14.824128" x2="20.030329" y2="14.824128" gradientUnits="userSpaceOnUse" />
    <radialGradient ns1:href="#whiteHighlight" id="radialGradient1709" cx="6.3546228" cy="6.4454737" fx="6.3546228" fy="6.4454737" r="3.1466389" gradientUnits="userSpaceOnUse" gradientTransform="matrix(1.947694,0,0,1.947694,-5.9662248,-5.1374146)" />
    <radialGradient ns1:href="#whiteHighlight" id="radialGradient1709-3" cx="6.3546228" cy="6.4454737" fx="6.3546228" fy="6.4454737" r="3.1466389" gradientUnits="userSpaceOnUse" gradientTransform="matrix(1.947694,0,0,1.947694,-2.7760498,-3.931728)" />
    <radialGradient ns1:href="#whiteHighlight" id="radialGradient1709-1" cx="6.3546228" cy="6.4454737" fx="6.3546228" fy="6.4454737" r="3.1466389" gradientUnits="userSpaceOnUse" gradientTransform="matrix(1.947694,0,0,1.947694,-3.0960853,-4.259142)" />
    <radialGradient ns1:href="#whiteHighlight" id="radialGradient1709-9" cx="6.3546228" cy="6.4454737" fx="6.3546228" fy="6.4454737" r="3.1466389" gradientUnits="userSpaceOnUse" gradientTransform="matrix(1.947694,0,0,1.947694,-2.4325948,-4.6088938)" />
    <linearGradient ns1:href="#crownouter" id="linearGradient3944" x1="11.165458" y1="7.2212901" x2="12.812607" y2="7.2212901" gradientUnits="userSpaceOnUse" />
  </defs>
  
</defs>
<g transform="translate(66.0,50.0) rotate(270) translate(-50.0,-66.0)">
<g transform="translate(2,2)">
<rect x="0" y="0" width="96" height="128" rx="5" ry="5" style="stroke:#000000;stroke-width:1;fill:#ffffff" />
<g transform="translate(48.0,64.0) scale(3,3)translate(-12.0,-12.0) ">
<path  style="fill:#fc0000;fill-opacity:1;stroke:none;stroke-width:0.264584px;stroke-linecap:butt;stroke-linejoin:miter;stroke-opacity:1" d="M 5.5455457,1.3145394 C 5.1459674,1.3274598 4.7192806,1.3789163 4.2572145,1.4703736 C 2.9212766,1.8384751 2.0021704,2.5180009 1.3861684,3.3492108 C -0.45551315,5.8343332 0.40714342,9.6827518 0.89958185,10.667091 C 2.6458195,14.157606 6.7883549,16.872439 12.027037,23.853449 C 17.26573,16.872439 21.408266,14.157606 23.154503,10.667091 C 23.646939,9.6827518 24.507864,5.8343332 22.666183,3.3492108 C 22.050185,2.5180009 21.132808,1.8384751 19.796869,1.4703736 C 16.100324,0.73833954 14.609577,2.5751854 12.027037,6.1215505 C 9.7673203,3.0184621 8.3425994,1.2241901 5.5455457,1.3145394 Z" id="heart" />
      
</g>
<g transform="translate(2,22) scale(0.5,0.5)">
<path  style="fill:#fc0000;fill-opacity:1;stroke:none;stroke-width:0.264584px;stroke-linecap:butt;stroke-linejoin:miter;stroke-opacity:1" d="M 5.5455457,1.3145394 C 5.1459674,1.3274598 4.7192806,1.3789163 4.2572145,1.4703736 C 2.9212766,1.8384751 2.0021704,2.5180009 1.3861684,3.3492108 C -0.45551315,5.8343332 0.40714342,9.6827518 0.89958185,10.667091 C 2.6458195,14.157606 6.7883549,16.872439 12.027037,23.853449 C 17.26573,16.872439 21.408266,14.157606 23.154503,10.667091 C 23.646939,9.6827518 24.507864,5.8343332 22.666183,3.3492108 C 22.050185,2.5180009 21.132808,1.8384751 19.796869,1.4703736 C 16.100324,0.73833954 14.609577,2.5751854 12.027037,6.1215505 C 9.7673203,3.0184621 8.3425994,1.2241901 5.5455457,1.3145394 Z" id="heart" />
      
</g>
<g transform="translate(95,108) scale(0.5,0.5) rotate(180)">
<path  style="fill:#fc0000;fill-opacity:1;stroke:none;stroke-width:0.264584px;stroke-linecap:butt;stroke-linejoin:miter;stroke-opacity:1" d="M 5.5455457,1.3145394 C 5.1459674,1.3274598 4.7192806,1.3789163 4.2572145,1.4703736 C 2.9212766,1.8384751 2.0021704,2.5180009 1.3861684,3.3492108 C -0.45551315,5.8343332 0.40714342,9.6827518 0.89958185,10.667091 C 2.6458195,14.157606 6.7883549,16.872439 12.027037,23.853449 C 17.26573,16.872439 21.408266,14.157606 23.154503,10.667091 C 23.646939,9.6827518 24.507864,5.8343332 22.666183,3.3492108 C 22.050185,2.5180009 21.132808,1.8384751 19.796869,1.4703736 C 16.100324,0.73833954 14.609577,2.5751854 12.027037,6.1215505 C 9.7673203,3.0184621 8.3425994,1.2241901 5.5455457,1.3145394 Z" id="heart" />
      
</g>
<g transform="translate(3,4) scale(0.1,0.1)">
<path  id="A" unicode="A" horiz-adv-x="580" d="M 54.414548,-8.476572 L 61.629379,11.607954 C 61.629379,11.607954 71.964129,40.857263 82.49388,72.056525 C 87.758758,87.656156 92.828639,103.84078 96.728544,117.29546 C 98.678503,123.9253 100.43346,129.97016 101.60344,135.04004 C 102.77341,140.10992 103.55339,143.61984 103.55339,147.32475 H 88.343743 C 88.343743,146.93476 87.953755,143.03485 86.783779,138.54996 C 84.248841,128.80018 80.15394,115.7355 77.034011,105.01075 H 31.795083 C 30.040124,110.86061 28.09017,116.51548 26.530207,121.58536 C 24.580253,128.2152 23.215285,134.06506 22.045313,138.54996 C 20.875341,143.03485 20.48535,146.93476 20.48535,147.32475 H 5.080714 C 5.080714,143.61984 5.8606956,140.10992 7.0306676,135.04004 C 8.2006403,129.97016 9.9555985,123.9253 11.905552,117.29546 C 15.80546,103.84078 21.070336,87.656156 26.335212,72.056525 C 36.864963,40.857263 47.199719,11.607954 47.199719,11.607954 Z M 54.414548,37.737337 C 50.514641,48.852074 47.58971,56.65189 40.764871,76.931409 L 36.669968,89.801106 H 72.159127 C 66.309263,71.666537 58.119462,48.267088 54.414548,37.737337 Z" style="fill:#b00000;display:inline;stroke-width:0.999998" />
  
</g>
<g transform="rotate(180) translate(-94,-126) scale(0.1,0.1)">
<path  id="A" unicode="A" horiz-adv-x="580" d="M 54.414548,-8.476572 L 61.629379,11.607954 C 61.629379,11.607954 71.964129,40.857263 82.49388,72.056525 C 87.758758,87.656156 92.828639,103.84078 96.728544,117.29546 C 98.678503,123.9253 100.43346,129.97016 101.60344,135.04004 C 102.77341,140.10992 103.55339,143.61984 103.55339,147.32475 H 88.343743 C 88.343743,146.93476 87.953755,143.03485 86.783779,138.54996 C 84.248841,128.80018 80.15394,115.7355 77.034011,105.01075 H 31.795083 C 30.040124,110.86061 28.09017,116.51548 26.530207,121.58536 C 24.580253,128.2152 23.215285,134.06506 22.045313,138.54996 C 20.875341,143.03485 20.48535,146.93476 20.48535,147.32475 H 5.080714 C 5.080714,143.61984 5.8606956,140.10992 7.0306676,135.04004 C 8.2006403,129.97016 9.9555985,123.9253 11.905552,117.29546 C 15.80546,103.84078 21.070336,87.656156 26.335212,72.056525 C 36.864963,40.857263 47.199719,11.607954 47.199719,11.607954 Z M 54.414548,37.737337 C 50.514641,48.852074 47.58971,56.65189 40.764871,76.931409 L 36.669968,89.801106 H 72.159127 C 66.309263,71.666537 58.119462,48.267088 54.414548,37.737337 Z" style="fill:#b00000;display:inline;stroke-width:0.999998" />
  
</g>
</g>
</g>
</svg>