<?xml version="1.0" encoding="UTF-8" standalone="no"?>
<svg width="132" height="100" version="1.1" xmlns="http://www.w3.org/2000/svg">
<defs>
<defs  xmlns:ns1="http://www.w3.org/1999/xlink" id="defs2">
    <linearGradient id="whiteHighlight">
      <stop style="stop-color:#ffffff;stop-opacity:1" offset="0" id="stop1703" />
      <stop style="stop-color:#ffffff;stop-opacity:0" offset="1" id="stop1705" />
    </linearGradient>
    <linearGradient id="crownouter">
      <stop style="stop-color:#6e5b00;stop-opacity:1;" offset="0" id="stop4551" />
      <stop style="stop-color:#ffe845;stop-opacity:1" offset="0.5" id="stop5011" />
      <stop style="stop-color:#6e5b00;stop-opacity:1" offset="1" id="stop4553" />
    </linearGradient>
    <linearGradient id="crownInner">
      <stop id="stop2680" offset="0" style="stop-color:#312d17;stop-opacity:1" />
      <stop id="stop2686" offset="0.49426076" style="stop-color:#897c38;stop-opacity:1" />
      <stop id="stop2682" offset="1" style="stop-color:#312d17;stop-opacity:1" />
    </linearGradient>
    <linearGradient ns1:href="#crownInner" id="linearGradient4518" x1="4.9825168" y1="15.156635" x2="19.192074" y2="15.156635" gradientUnits="userSpaceOnUse" />
    <linearGradient ns1:href="#crownouter" id="linearGradient4670" gradientUnits="userSpaceOnUse" x1="4.0073304" y1="10.701041" x2="20.031181" y2="10.701041" />
    <linearGradient ns1:href="#crownouter" id="linearGradient5714" x1="4.9825497" y1="13.701599" x2="19.170591" y2="13.701599" gradientUnits="userSpaceOnUse" />
    <linearGradient ns1:href="#crownouter" id="linearGradient7029" x1="5.1953835" y1="15.294698" x2="18.838846" y2="15.294698" gradientUnits="userSpaceOnUse" />
    <linearGradient ns1:href="#crownouter" id="linearGradient7132" x1="12.0861" y1="7.6777701" x2="12.0861" y2="13.563574" gradientUnits="userSpaceOnUse" />
    <linearGradient ns1:href="#crownouter" id="linearGradient7235" x1="6.0899706" y1="14.878779" x2="6.0899706" y2="6.0688558" gradientUnits="userSpaceOnUse" />
    <linearGradient ns1:href="#crownInner" id="linearGradient7574" x1="5.195343" y1="16.95495" x2="18.859346" y2="16.95495" gradientUnits="userSpaceOnUse" />
    <linearGradient ns1:href="#crownouter" id="linearGradient8247" x1="4.6741257" y1="13.553888" x2="19.623487" y2="13.553888" gradientUnits="userSpaceOnUse" />
    <linearGradient ns1:href="#crownInner" id="linearGradient8297" x1="4.2282629" y1="14.824128" x2="20.030329" y2="14.824128" gradientUnits="userSpaceOnUse" />
    <radialGradient ns1:href="#whiteHighlight" id="radialGradient1709" cx="6.3546228" cy="6.4454737" fx="6.3546228" fy="6.4454737" r="3.1466389" gradientUnits="userSpaceOnUse" gradientTransform="matrix(1.947694,0,0,1.947694,-5.9662248,-5.1374146)" />
    <radialGradient ns1:href="#whiteHighlight" id="radialGradient1709-3" cx="6.3546228" cy="6.4454737" fx="6.3546228" fy="6.4454737" r="3.1466389" gradientUnits="userSpaceOnUse" gradientTransform="matrix(1.947694,0,0,1.947694,-2.7760498,-3.931728)" />
    <radialGradient ns1:href="#whiteHighlight" id="radialGradient1709-1" cx="6.3546228" cy="6.4454737" fx="6.3546228" fy="6.4454737" r="3.1466389" gradientUnits="userSpaceOnUse" gradientTransform="matrix(1.947694,0,0,1.947694,-3.0960853,-4.259142)" />
    <radialGradient ns1:href="#whiteHighlight" id="radialGradient1709-9" cx="6.3546228" cy="6.4454737" fx="6.3546228" fy="6.4454737" r="3.1466389" gradientUnits="userSpaceOnUse" gradientTransform="matrix(1.947694,0,0,1.947694,-2.4325948,-4.6088938)" />
    <linearGradient ns1:href="#crownouter" id="linearGradient3944" x1="11.165458" y1="7.2212901" x2="12.812607" y2="7.2212901" gradientUnits="userSpaceOnUse" />
  </defs>
  
</defs>
<g transform="translate(66.0,50.0) rotate(270) translate(-50.0,-66.0)">
<g transform="translate(2,2)">
<rect x="0" y="0" width="96" height="128" rx="5" ry="5" style="stroke:#000000;stroke-width:1;fill:#ffffff" />
<g transform="translate(37.0,20)  ">
<path  style="fill:#000000;fill-opacity:1;stroke:none;stroke-width:0.264584" d="M 12.014502,0.14251631 C 11.845884,0.14167127 11.671133,0.16197216 11.528124,0.17562503 C 9.081495,0.55264702 7.6337592,3.2188243 7.8544061,5.5421782 C 7.9437318,6.9370429 8.5397424,8.3305183 9.616272,9.2459553 C 7.1487818,7.9365193 3.5346255,8.7222823 2.303094,11.36703 C 1.3642721,13.33479 2.6915322,15.739684 4.6323031,16.478157 C 6.7998545,17.459269 9.647454,16.991522 11.181424,15.106414 C 11.79078,17.601712 11.17808,20.589269 8.9832673,22.135516 C 7.81824,23.027554 6.4072435,23.565142 4.9642535,23.793034 C 7.3143422,23.737934 9.664972,23.684225 12.015617,23.67339 C 14.366246,23.684225 16.717455,23.737934 19.067527,23.793034 C 17.624537,23.565142 16.213538,23.027554 15.048509,22.135516 C 12.853695,20.589269 12.240995,17.601712 12.850365,15.106414 C 14.384338,16.991522 17.231926,17.459269 19.399477,16.478157 C 21.340251,15.739684 22.66751,13.33479 21.728673,11.36703 C 20.497166,8.7222823 16.882999,7.9365193 14.415504,9.2459553 C 15.492033,8.3305183 16.088046,6.9370429 16.177373,5.5421782 C 16.39802,3.2188243 14.950296,0.55264702 12.503669,0.17562503 C 12.360642,0.16197216 12.185335,0.14167127 12.016716,0.14251631 Z" id="club" />
      
</g>
<g transform="translate(37.0,84.0) translate(12.0,12.0) rotate(180) translate(-12.0,-12.0) ">
<path  style="fill:#000000;fill-opacity:1;stroke:none;stroke-width:0.264584" d="M 12.014502,0.14251631 C 11.845884,0.14167127 11.671133,0.16197216 11.528124,0.17562503 C 9.081495,0.55264702 7.6337592,3.2188243 7.8544061,5.5421782 C 7.9437318,6.9370429 8.5397424,8.3305183 9.616272,9.2459553 C 7.1487818,7.9365193 3.5346255,8.7222823 2.303094,11.36703 C 1.3642721,13.33479 2.6915322,15.739684 4.6323031,16.478157 C 6.7998545,17.459269 9.647454,16.991522 11.181424,15.106414 C 11.79078,17.601712 11.17808,20.589269 8.9832673,22.135516 C 7.81824,23.027554 6.4072435,23.565142 4.9642535,23.793034 C 7.3143422,23.737934 9.664972,23.684225 12.015617,23.67339 C 14.366246,23.684225 16.717455,23.737934 19.067527,23.793034 C 17.624537,23.565142 16.213538,23.027554 15.048509,22.135516 C 12.853695,20.589269 12.240995,17.601712 12.850365,15.106414 C 14.384338,16.991522 17.231926,17.459269 19.399477,16.478157 C 21.340251,15.739684 22.66751,13.33479 21.728673,11.36703 C 20.497166,8.7222823 16.882999,7.9365193 14.415504,9.2459553 C 15.492033,8.3305183 16.088046,6.9370429 16.177373,5.5421782 C 16.39802,3.2188243 14.950296,0.55264702 12.503669,0.17562503 C 12.360642,0.16197216 12.185335,0.14167127 12.016716,0.14251631 Z" id="club" />
      
</g>
<g transform="translate(2,22) scale(0.5,0.5)">
<path  style="fill:#000000;fill-opacity:1;stroke:none;stroke-width:0.264584" d="M 12.014502,0.14251631 C 11.845884,0.14167127 11.671133,0.16197216 11.528124,0.17562503 C 9.081495,0.55264702 7.6337592,3.2188243 7.8544061,5.5421782 C 7.9437318,6.9370429 8.5397424,8.3305183 9.616272,9.2459553 C 7.1487818,7.9365193 3.5346255,8.7222823 2.303094,11.36703 C 1.3642721,13.33479 2.6915322,15.739684 4.6323031,16.478157 C 6.7998545,17.459269 9.647454,16.991522 11.181424,15.106414 C 11.79078,17.601712 11.17808,20.589269 8.9832673,22.135516 C 7.81824,23.027554 6.4072435,23.565142 4.9642535,23.793034 C 7.3143422,23.737934 9.664972,23.684225 12.015617,23.67339 C 14.366246,23.684225 16.717455,23.737934 19.067527,23.793034 C 17.624537,23.565142 16.213538,23.027554 15.048509,22.135516 C 12.853695,20.589269 12.240995,17.601712 12.850365,15.106414 C 14.384338,16.991522 17.231926,17.459269 19.399477,16.478157 C 21.340251,15.739684 22.66751,13.33479 21.728673,11.36703 C 20.497166,8.7222823 16.882999,7.9365193 14.415504,9.2459553 C 15.492033,8.3305183 16.088046,6.9370429 16.177373,5.5421782 C 16.39802,3.2188243 14.950296,0.55264702 12.503669,0.17562503 C 12.360642,0.16197216 12.185335,0.14167127 12.016716,0.14251631 Z" id="club" />
      
</g>
<g transform="translate(95,108) scale(0.5,0.5) rotate(180)">
<path  style="fill:#000000;fill-opacity:1;stroke:none;stroke-width:0.264584" d="M 12.014502,0.14251631 C 11.845884,0.14167127 11.671133,0.16197216 11.528124,0.17562503 C 9.081495,0.55264702 7.6337592,3.2188243 7.8544061,5.5421782 C 7.9437318,6.9370429 8.5397424,8.3305183 9.616272,9.2459553 C 7.1487818,7.9365193 3.5346255,8.7222823 2.303094,11.36703 C 1.3642721,13.33479 2.6915322,15.739684 4.6323031,16.478157 C 6.7998545,17.459269 9.647454,16.991522 11.181424,15.106414 C 11.79078,17.601712 11.17808,20.589269 8.9832673,22.135516 C 7.81824,23.027554 6.4072435,23.565142 4.9642535,23.793034 C 7.3143422,23.737934 9.664972,23.684225 12.015617,23.67339 C 14.366246,23.684225 16.717455,23.737934 19.067527,23.793034 C 17.624537,23.565142 16.213538,23.027554 15.048509,22.135516 C 12.853695,20.589269 12.240995,17.601712 12.850365,15.106414 C 14.384338,16.991522 17.231926,17.459269 19.399477,16.478157 C 21.340251,15.739684 22.66751,13.33479 21.728673,11.36703 C 20.497166,8.7222823 16.882999,7.9365193 14.415504,9.2459553 C 15.492033,8.3305183 16.088046,6.9370429 16.177373,5.5421782 C 16.39802,3.2188243 14.950296,0.55264702 12.503669,0.17562503 C 12.360642,0.16197216 12.185335,0.14167127 12.016716,0.14251631 Z" id="club" />
      
</g>
<g transform="translate(3,4) scale(0.1,0.1)">
<path  id="two" unicode="2" d="M 71.964129,39.102304 C 71.964129,22.3327 58.719677,13.114683 44.675308,13.114683 C 38.898706,13.114683 33.550022,14.922823 29.455118,18.432734 C 24.970225,22.332642 21.850298,28.572495 21.850298,39.102246 H 5.0806942 C 5.0806942,14.142835 21.045845,-3.6114955 44.490629,-3.6114955 C 44.807283,-3.6114955 45.054674,-3.6017319 45.444665,-3.6017319 C 46.029651,-3.6017319 46.809633,-3.4067367 47.394619,-3.4067367 C 67.869132,-2.0417687 88.733642,13.752858 88.733642,39.10226 V 39.297255 C 88.538645,50.216997 82.883778,59.186785 75.863945,66.986599 C 68.844111,74.786415 60.459313,81.611258 52.269503,88.826082 C 38.229836,101.11079 26.335116,113.98049 23.21519,130.7501 H 71.769043 V 122.36529 H 88.343648 V 147.3247 H 5.0806183 V 138.9399 C 5.0806183,97.600877 43.299716,78.296332 63.579235,55.871863 C 69.234099,49.632011 71.964034,44.367135 71.964034,39.10226 Z" style="fill:#000000;display:inline;stroke-width:0.999998" />
  
</g>
<g transform="rotate(180) translate(-94,-126) scale(0.1,0.1)">
<path  id="two" unicode="2" d="M 71.964129,39.102304 C 71.964129,22.3327 58.719677,13.114683 44.675308,13.114683 C 38.898706,13.114683 33.550022,14.922823 29.455118,18.432734 C 24.970225,22.332642 21.850298,28.572495 21.850298,39.102246 H 5.0806942 C 5.0806942,14.142835 21.045845,-3.6114955 44.490629,-3.6114955 C 44.807283,-3.6114955 45.054674,-3.6017319 45.444665,-3.6017319 C 46.029651,-3.6017319 46.809633,-3.4067367 47.394619,-3.4067367 C 67.869132,-2.0417687 88.733642,13.752858 88.733642,39.10226 V 39.297255 C 88.538645,50.216997 82.883778,59.186785 75.863945,66.986599 C 68.844111,74.786415 60.459313,81.611258 52.269503,88.826082 C 38.229836,101.11079 26.335116,113.98049 23.21519,130.7501 H 71.769043 V 122.36529 H 88.343648 V 147.3247 H 5.0806183 V 138.9399 C 5.0806183,97.600877 43.299716,78.296332 63.579235,55.871863 C 69.234099,49.632011 71.964034,44.367135 71.964034,39.10226 Z" style="fill:#000000;display:inline;stroke-width:0.999998" />
  
</g>
</g>
</g>
</svg>